<?xml version="1.0" encoding="UTF-8" standalone="no"?>
<!-- Created with Inkscape (http://www.inkscape.org/) -->

<svg
   version="1.1"
   id="svg1"
   width="576"
   height="336"
   viewBox="0 0 576 336"
   xmlns="http://www.w3.org/2000/svg"
   xmlns:svg="http://www.w3.org/2000/svg">
  <defs
     id="defs1" />
  <g
     id="g1">
    <path
       style="fill:#000000"
       d="m 239.56471,206.31938 c 0,-3.168 -0.22238,-5.76 -0.49418,-5.76 -0.2718,0 -1.54603,0.86702 -2.83163,1.92672 l -2.33745,1.92673 -1.45163,-2.03862 -1.45162,-2.03863 3.14573,-2.7681 c 2.9957,-2.63608 3.33735,-2.7681 7.16326,-2.7681 h 4.01752 v 8.64 8.64 h -2.88 -2.88 z m 53.12,2.01919 c 0,-3.92826 0.8513,-5.38873 3.52,-6.03888 0.704,-0.17151 0.024,-0.34524 -1.51122,-0.38607 l -2.79123,-0.0742 0.43149,-2.4 c 0.23731,-1.32 0.84195,-2.71725 1.34362,-3.105 2.07062,-1.60039 15.39982,-1.66764 17.40734,-0.0878 1.20024,0.94452 1.03655,7.15978 -0.21594,8.19925 -0.55876,0.46374 -3.36676,1.18119 -6.24,1.59434 l -5.22406,0.75118 6.17153,0.084 c 6.48774,0.0883 7.48611,0.58186 6.63048,3.2777 -0.28691,0.90398 -1.52595,1.16547 -7.15407,1.50983 -3.74388,0.22908 -8.05826,0.4165 -9.5875,0.4165 h -2.78044 z m 13.679,-7.76219 c 1.02347,-1.02347 -1.25881,-1.477 -5.04936,-1.0034 -2.57689,0.32196 -3.50964,0.70563 -3.50964,1.44362 0,0.85012 0.61252,0.9411 3.97198,0.58997 2.18459,-0.22834 4.24875,-0.69192 4.58702,-1.03019 z m 12.561,11.07149 c -3.14107,-0.43268 -4.48,-1.85227 -4.48,-4.74991 0,-1.33267 0.28878,-2.60152 0.64173,-2.81965 0.42898,-0.26512 0.42898,-0.79415 0,-1.5957 -1.21694,-2.27387 -0.753,-4.94179 1.11827,-6.43076 1.64415,-1.30825 2.20236,-1.37366 8.48,-0.99377 5.853,0.35419 6.87131,0.58772 7.89278,1.81006 0.86444,1.03442 1.05433,1.91451 0.72225,3.34732 -0.49274,2.12598 -0.48703,2.63008 0.0729,6.4366 0.55737,3.78916 -0.80063,4.74961 -7.1523,5.0585 -2.78059,0.13523 -6.06362,0.10702 -7.29562,-0.0627 z m 6.96,-4.44849 c 1.1,-0.22 2,-0.652 2,-0.96 0,-0.75078 -7.50492,-0.72106 -7.97006,0.0316 -0.64331,1.04089 2.76083,1.57028 5.97006,0.92844 z m 0.4,-6.67625 c 1.65419,-0.0463 1.74279,-0.12987 0.64,-0.60375 -1.7309,-0.7438 -5.91809,-0.77975 -6.36621,-0.0547 -0.48153,0.77912 0.93092,1.33144 2.52621,0.98783 0.704,-0.15163 2.144,-0.29987 3.2,-0.32942 z m -76.06081,9.74585 c -1.23097,-1.3602 -1.40908,-5.26371 -0.29119,-6.3816 0.59734,-0.59734 0.59734,-0.93867 0,-1.536 -1.15399,-1.15399 -0.9246,-4.01725 0.45833,-5.7211 1.15139,-1.41857 1.61962,-1.50564 7.66186,-1.42484 8.66018,0.11582 9.52075,0.37785 10.02236,3.05171 0.22364,1.19209 0.0988,2.74263 -0.27744,3.44562 -0.51268,0.95796 -0.44436,1.75866 0.2727,3.19605 1.01258,2.02977 0.42679,5.01233 -1.18585,6.03773 -0.41798,0.26578 -4.09932,0.48764 -8.18077,0.49303 -6.38413,0.008 -7.56877,-0.1537 -8.48,-1.1606 z m 11.26081,-3.30086 c 0.616,-0.005 1.12,-0.29674 1.12,-0.64874 0,-0.36103 -1.81333,-0.64 -4.16,-0.64 -2.288,0 -4.16,0.26887 -4.16,0.59749 0,0.69348 2.93366,1.26072 4.8,0.9281 0.704,-0.12546 1.784,-0.23205 2.4,-0.23685 z m -0.16,-6.44668 c 1.4684,-0.0478 1.49472,-0.0973 0.32,-0.60206 -0.704,-0.30252 -2.504,-0.57028 -4,-0.59502 -2.10649,-0.0348 -2.72,0.19044 -2.72,0.99876 0,0.84995 0.44559,0.97008 2.4,0.64704 1.32,-0.21818 3.12,-0.42011 4,-0.44872 z m 10.24,9.63794 c -1.07382,-1.07382 -1.28,-2.13334 -1.28,-6.5776 0,-6.37648 0.78022,-7.83733 4.52359,-8.46977 3.87766,-0.65512 13.89844,0.28083 15.02055,1.40294 0.68139,0.68139 0.93586,2.48962 0.93586,6.65014 0,8.08262 -0.2372,8.27429 -10.24,8.27429 -6.82666,0 -7.82222,-0.14222 -8.96,-1.28 z m 12,-3.60339 c 1.21442,-0.32545 1.44,-0.82346 1.44,-3.17906 0,-3.20086 -0.85744,-3.69362 -5.81133,-3.33966 l -2.82867,0.20211 -0.20152,2.81657 c -0.13022,1.82012 0.0962,3.00536 0.64,3.3502 0.98223,0.62286 4.68988,0.70502 6.76152,0.14984 z m 53.98662,3.76339 c -1.71549,-1.41778 -2.46113,-7.57241 -1.39488,-11.51356 0.88811,-3.28271 1.57204,-3.52287 10.3039,-3.61829 5.29297,-0.0578 6.44145,0.11632 7.59048,1.15104 2.02383,1.82249 1.73363,3.39564 -0.72612,3.93628 -1.96278,0.43141 -1.99832,0.48741 -0.63069,0.99367 2.77538,1.02737 3.42869,6.80143 1.03984,9.19028 -1.51404,1.51404 -14.31532,1.40374 -16.18253,-0.13942 z m 12.02427,-3.71756 c 0.79994,-0.79994 -1.73913,-1.56418 -4.68058,-1.40881 -3.15547,0.16667 -4.65539,1.36777 -2.48573,1.9905 1.32108,0.37917 6.63694,-0.0523 7.16631,-0.58169 z m -1.85089,-6.07869 c 2.56307,-0.0391 3.17203,-0.20325 2.24,-0.60375 -2.56677,-1.10298 -8.64,-0.54818 -8.64,0.78929 0,0.352 0.648,0.46634 1.44,0.25409 0.792,-0.21225 3.024,-0.41008 4.96,-0.43963 z m -220.16,-21.15481 c -9.43146,-0.68003 -12.8,-1.15729 -12.8,-1.81351 0,-0.28938 0.504,-0.67227 1.12,-0.85086 0.616,-0.1786 9.184,-2.77203 19.04,-5.76318 l 17.92,-5.43846 8.19096,1.79652 c 4.50502,0.98808 10.77894,2.15017 13.94203,2.58243 3.57676,0.48879 5.66306,1.04999 5.51826,1.48438 -0.12805,0.38415 -4.38597,2.49295 -9.46203,4.68622 l -9.22922,3.98777 -13.44,-0.0703 c -7.392,-0.0387 -16.752,-0.30913 -20.8,-0.601 z m 43.60934,0.1595 c -1.43188,-0.40186 -1.38181,-0.48652 0.96,-1.62321 1.35886,-0.65958 5.28455,-2.45609 8.72374,-3.99223 l 6.25309,-2.793 h 14.10469 c 8.03064,0 13.95376,0.2442 13.75422,0.56706 -0.19275,0.31188 -3.32558,2.32788 -6.96184,4.48 l -6.61137,3.91294 -14.35594,-0.0638 c -7.89576,-0.0351 -15.03573,-0.25458 -15.86659,-0.48776 z m 38.63066,-0.0389 c -1.08502,-0.42426 -0.36755,-1.09984 4.71004,-4.43502 l 5.99005,-3.93452 11.28995,0.0279 11.28996,0.0279 -4.8,4.43917 -4.8,4.43918 -11.2,-0.032 c -6.16,-0.0176 -11.776,-0.25725 -12.48,-0.53252 z m 32.40985,-3.88954 4.01105,-4.48 h 8.82955 c 10.17905,0 10.07151,-0.0865 6.86258,5.52209 l -1.96697,3.43791 h -10.87362 -10.87363 z m 24.71015,4.03883 c -1.39384,-0.36425 -1.43458,-0.0291 0.56366,-4.63665 l 1.68365,-3.88218 h 11.07167 11.07167 l -0.59378,2.08 c -0.8745,3.06334 -2.6744,5.18106 -5.13681,6.04387 -2.08095,0.72916 -16.23485,1.02873 -18.66006,0.39496 z m 31.14572,-0.46854 c -2.65478,-1.15589 -4.85336,-4.05896 -4.61616,-6.09531 l 0.19044,-1.63498 10.38123,-0.17577 10.38123,-0.17576 1.53589,3.05576 c 0.84473,1.68067 1.73659,3.70377 1.9819,4.49577 l 0.44601,1.44 -9.16313,-0.025 c -6.21261,-0.017 -9.79885,-0.30184 -11.13741,-0.88466 z m 23.83734,-3.01378 c -1.24346,-2.20648 -2.11834,-4.24234 -1.94418,-4.52415 0.17417,-0.2818 4.12468,-0.51236 8.77893,-0.51236 h 8.46226 l 3.78337,3.82326 c 2.08085,2.1028 3.56064,4.0468 3.28842,4.32 -0.27222,0.27321 -4.90788,0.58861 -10.30146,0.70089 l -9.80651,0.20415 z m 23.66118,-0.54577 -4.56424,-4.46926 11.30475,-0.0107 11.30474,-0.0107 5.49526,3.64856 c 3.02239,2.00671 5.49525,3.84512 5.49525,4.08536 0,0.92012 -3.24416,1.20889 -13.67576,1.21734 l -10.79576,0.009 z m 30.36352,0.56886 c -4.5332,-2.91979 -5.80555,-4.02879 -5.12,-4.46266 0.50173,-0.31754 6.5631,-0.58175 13.46971,-0.58714 l 12.55747,-0.01 6.62674,2.93814 c 3.64471,1.61598 7.49785,3.39645 8.56254,3.95662 l 1.93578,1.01847 -1.6,0.45959 c -0.88,0.25277 -8.08,0.4849 -16,0.51584 l -14.4,0.0563 z m 45.39224,3.06793 c -3.80481,-1.11875 -17.18717,-6.81956 -17.60836,-7.50106 -0.43088,-0.69717 0.49562,-0.94458 9.37639,-2.50379 4.09641,-0.71922 9.77078,-1.86244 12.60972,-2.5405 l 5.16169,-1.23284 19.01612,5.70533 c 10.45887,3.13793 19.1701,5.70533 19.35828,5.70533 0.18819,0 0.0354,0.30679 -0.33959,0.68175 -1.80299,1.80299 -42.29579,3.23784 -47.57425,1.68578 z M 94.284712,173.31529 c -7.813192,-2.04175 -18.56,-7.27042 -18.56,-9.03005 0,-0.46522 0.101247,-0.84586 0.224993,-0.84586 0.123746,0 11.283746,-2.01494 24.799995,-4.47765 13.51626,-2.4627 25.48654,-4.4787 26.60063,-4.48 1.23746,-0.001 5.09728,1.58079 9.92,4.06642 4.34191,2.23782 8.32638,4.21439 8.85438,4.39238 0.528,0.17799 0.76469,0.53435 0.52597,0.79193 -0.51999,0.56106 -28.98062,8.27477 -35.53899,9.63216 -5.70436,1.18063 -12.193046,1.16161 -16.826978,-0.0493 z m 364.479998,-3.51058 c -9.152,-2.43789 -17.48441,-4.66463 -18.51647,-4.94833 -3.16912,-0.87114 -2.56689,-1.88732 2.50813,-4.23213 2.6801,-1.23828 6.56341,-3.27834 8.62959,-4.53348 l 3.7567,-2.28207 25.17103,4.53125 c 13.84406,2.49218 25.84833,4.81027 26.67615,5.15129 1.30679,0.53834 1.39112,0.75893 0.64,1.67402 -1.42861,1.74047 -13.33696,7.04203 -18.27147,8.1344 -8.34606,1.8476 -12.18277,1.4093 -30.59366,-3.49495 z m -262.08,-2.42011 c 0,-0.29413 5.75055,-3.18149 12.77901,-6.41636 l 12.779,-5.88158 10.101,0.17636 10.10099,0.17636 -10.46975,6.24 -10.46976,6.24 h -12.41024 c -6.82564,0 -12.41025,-0.24065 -12.41025,-0.53478 z m 30.9859,-0.68544 c 0.60736,-0.67113 4.6231,-3.55113 8.92386,-6.4 l 7.81957,-5.17978 h 7.64333 7.64333 l -6.37599,6.4 -6.37598,6.4 h -10.1912 c -9.98425,0 -10.16878,-0.0248 -9.08692,-1.22022 z m 22.77645,0.74022 c 0.001,-0.264 2.55182,-3.144 5.66782,-6.4 l 5.66547,-5.92 h 3.80465 3.80465 l 1.33628,2.75046 c 0.73495,1.51276 2.83724,4.39276 4.67175,6.4 l 3.33547,3.64954 h -14.14422 c -7.77932,0 -14.14316,-0.216 -14.14187,-0.48 z m 57.29917,-2.16817 c 1.58011,-1.45649 3.89852,-4.33649 5.15204,-6.4 l 2.27912,-3.75183 h 3.32779 c 3.32567,0 3.33107,0.003 8.47334,5.28 8.17857,8.39226 9.06489,7.52 -7.64114,7.52 h -14.46407 z m 23.1335,-3.73599 -6.51502,-6.38415 7.68,0.0154 7.68,0.0153 8.27675,5.59905 c 4.55221,3.07948 8.39221,5.94545 8.53333,6.36881 0.19237,0.5771 -2.17075,0.76976 -9.44173,0.76976 h -9.69832 z m 21.64498,0.56125 c -5.28,-3.1999 -9.8736,-6.0788 -10.208,-6.39755 -0.36432,-0.34727 3.39362,-0.57954 9.37661,-0.57954 h 9.98461 l 13.31256,6.1025 c 7.32191,3.35638 13.44643,6.23638 13.61006,6.4 0.16362,0.16362 -5.7265,0.29639 -13.08917,0.29505 l -13.38667,-0.002 z m -173.12,4.49719 c -7.01926,-0.52274 -14.45661,-1.99489 -15.53713,-3.07542 -0.88081,-0.8808 1.48108,-1.77305 16.81713,-6.35299 20.11534,-6.00722 18.20193,-5.68923 24.73802,-4.11125 3.11409,0.75182 7.48031,1.56337 9.70271,1.80344 2.2224,0.24007 3.8064,0.63973 3.52,0.88814 -0.2864,0.24841 -6.37506,2.94513 -13.53036,5.99272 -14.24875,6.06884 -12.882,5.81073 -25.71037,4.85536 z m 199.36,-4.84277 c -7.04,-3.01718 -13.03217,-5.70214 -13.31594,-5.96658 -0.28376,-0.26444 1.44424,-0.67673 3.84,-0.91619 2.39577,-0.23947 6.61687,-1.04025 9.38022,-1.77952 4.35548,-1.16521 5.463,-1.24529 8.32,-0.60158 6.51991,1.469 33.27543,10.01148 33.50398,10.69713 0.13809,0.41428 -1.8037,1.13321 -4.74729,1.75764 -4.7323,1.00388 -7.12296,1.25246 -19.06097,1.98199 l -5.12,0.31288 z m -91.87164,4.01682 c -16.71396,-4.50779 -19.02627,-26.9053 -3.62627,-35.12483 3.60848,-1.92597 13.66228,-2.09612 16.97614,-0.2873 6.00843,3.27962 10.09723,9.22195 10.76253,15.64139 0.47289,4.56289 -0.4379,8.0806 -3.12946,12.08676 -2.56637,3.81984 -6.21086,6.31319 -11.08265,7.58213 -4.39164,1.14388 -5.97621,1.16018 -9.90029,0.10185 z m -135.96836,-5.80938 c -3.91419,-1.27734 -8.09556,-3.21773 -11.49965,-5.33649 -2.53158,-1.5757 -2.86592,-1.9848 -1.87131,-2.28973 1.15803,-0.35504 37.53744,-7.20776 46.44286,-8.74836 l 4.27189,-0.73902 4.20811,3.37217 c 2.31445,1.85469 4.2081,3.58805 4.2081,3.85191 0,0.59245 -2.58025,1.34436 -22.71643,6.61974 -16.62216,4.35476 -18.7804,4.66101 -23.04357,3.26978 z m 271.32344,-0.0245 c -9.17842,-1.99771 -34.20344,-9.26804 -34.20344,-9.93687 0,-0.71669 6.88675,-7.03762 7.6676,-7.03762 1.18775,0 49.57265,9.05766 50.08873,9.37661 1.09685,0.67789 0.26733,1.45822 -3.83633,3.60878 -5.19489,2.72244 -11.61797,4.95352 -14.05981,4.88373 -0.9791,-0.028 -3.52464,-0.43057 -5.65675,-0.89463 z M 70.443412,158.68626 c -1.320715,-0.47132 -3.40082,-1.61931 -4.622456,-2.5511 -3.348955,-2.55437 -8.016244,-9.78266 -8.016244,-12.41485 0,-1.5193 -0.833009,-1.41689 30.219838,-3.71522 l 24.13984,-1.78667 6.31207,6.55951 c 3.47164,3.60773 6.1102,6.68427 5.86347,6.83676 -0.79762,0.49296 -48.416666,7.97869 -50.535218,7.94415 -0.528,-0.009 -2.040585,-0.40127 -3.3613,-0.87258 z m 415.521298,-2.5944 c -26.08127,-4.18547 -26.24,-4.21624 -26.24,-5.08731 0,-0.43954 1.368,-2.07446 3.04,-3.63315 1.672,-1.55869 4.3174,-4.2371 5.87867,-5.95201 l 2.83866,-3.11804 7.08134,0.42703 c 3.89473,0.23487 15.83238,1.13892 26.5281,2.00902 10.69572,0.87009 19.83972,1.58198 20.32,1.58198 1.33373,0 1.05532,1.59579 -0.98282,5.63332 -1.99722,3.95647 -5.82458,8.08431 -9.16699,9.88668 -3.21207,1.73208 -10.21834,1.31417 -29.29696,-1.74752 z m -274.69975,-5.16637 c -7.76913,-1.88349 -15.57898,-7.29143 -19.58915,-13.56451 -2.45184,-3.8354 -5.2311,-12.05691 -5.2311,-15.47444 v -2.60716 h 49.84 c 27.412,0 50.74374,0.18075 51.8483,0.40166 1.41649,0.2833 2.12281,0.85787 2.39687,1.9498 0.49666,1.97887 0.42998,2.03196 -4.00749,3.19075 -5.03841,1.31571 -8.54653,3.48586 -12.33389,7.62984 -4.03883,4.41912 -5.82379,9.0202 -5.82379,15.01196 v 4.45599 l -26.72,-0.0533 c -20.44003,-0.0408 -27.58014,-0.26185 -30.37975,-0.94057 z m 104.34511,-3.96611 c -0.56673,-11.23578 -7.35854,-19.06552 -19.67952,-22.68697 -3.2005,-0.94071 -3.6641,-1.61626 -2.34626,-3.41891 0.89549,-1.22493 2.11727,-1.25827 52.48863,-1.43238 l 51.57179,-0.17826 v 1.8038 c 0,2.95118 -1.80941,9.14815 -3.96885,13.59272 -4.09736,8.43323 -13.27039,15.08396 -22.91115,16.61128 -2.33757,0.37033 -15.27516,0.66117 -29.53223,0.66388 l -25.37224,0.005 z m -183.88536,1.84302 c -3.17903,-1.51637 -11.72242,-10.07601 -10.85544,-10.87609 0.55315,-0.51048 61.68542,-5.50189 62.06557,-5.06762 0.087,0.0994 1.08062,2.02066 2.20807,4.26951 1.48195,2.95595 1.83846,4.2195 1.28676,4.56047 -0.41973,0.25941 -5.70005,1.24302 -11.73405,2.18579 -44.64068,6.97486 -39.835,6.42374 -42.97091,4.92794 z m 312.96,0.50501 c -14.47337,-2.01981 -46.81255,-7.23724 -47.23827,-7.62118 -0.28505,-0.25707 0.43495,-2.40744 1.6,-4.7786 l 2.11827,-4.31121 3.52,0.3644 c 1.936,0.20042 15.76,1.26876 30.72,2.37408 14.96,1.10532 27.47695,2.26836 27.81545,2.58452 1.44565,1.35029 -11.46882,12.34501 -14.09751,12.00192 -0.32887,-0.0429 -2.32594,-0.3192 -4.43794,-0.61393 z M 59.404712,136.5888 c -3.29121,-1.36133 -5.591029,-5.81301 -6.416552,-12.42027 -0.435036,-3.48191 -0.397753,-3.60498 1.286012,-4.24514 1.10777,-0.42118 10.389992,-0.59874 25.701092,-0.49165 l 23.967056,0.16764 1.46218,4.16 c 0.80419,2.288 1.90675,5.024 2.45011,6.08 2.08792,4.05773 2.05549,4.69657 -0.25788,5.08046 -2.22629,0.36944 -40.953965,2.30852 -44.717068,2.23897 -1.207222,-0.0223 -2.77095,-0.27882 -3.47495,-0.57001 z m 433.599998,-0.56495 c -21.12875,-1.23306 -19.44084,-0.26671 -15.83287,-9.06447 1.22702,-2.992 2.40234,-5.944 2.61182,-6.56 0.35389,-1.04065 2.12476,-1.12 24.99525,-1.12 27.66257,0 27.01082,-0.1087 26.27987,4.38291 -0.83499,5.13089 -1.13453,6.26452 -2.22407,8.41709 -2.15514,4.25784 -3.10691,4.68889 -10.725,4.85724 -3.77575,0.0834 -15.073,-0.3273 -25.105,-0.91277 z m -376.04396,-3.49041 c -2.05039,-1.72529 -7.15256,-11.71049 -6.37932,-12.48464 0.2469,-0.24718 16.04914,-0.53474 35.11609,-0.63903 l 34.66719,-0.1896 0.1946,3.0696 c 0.10702,1.68829 0.45083,4.2138 0.76402,5.61225 0.31318,1.39846 0.48524,2.62684 0.38234,2.72973 -0.23773,0.23774 -38.98133,2.52805 -52.54758,3.10633 l -10.24662,0.43678 z m 330.92396,1.00311 c -1.76,-0.12766 -12.51021,-0.76036 -23.88936,-1.40601 -11.37915,-0.64564 -20.941,-1.42553 -21.24856,-1.73309 -0.31893,-0.31893 -0.30428,-1.65889 0.0341,-3.11863 0.32631,-1.40769 0.60017,-3.7929 0.60856,-5.30047 l 0.0153,-2.74102 34.8271,0.18102 c 19.1549,0.0996 35.02019,0.37432 35.2562,0.61056 0.236,0.23624 -0.92676,3.05472 -2.58392,6.26329 -2.09277,4.05197 -3.56627,6.11986 -4.82442,6.77047 -1.75851,0.90936 -9.43487,1.10929 -18.19496,0.47388 z M 290.6789,117.8155 l -1.04581,-1.41612 -116.56527,-0.20023 -116.565261,-0.20022 -1.671115,-1.43744 c -1.268887,-1.09145 -1.745511,-2.21168 -1.980202,-4.65415 l -0.309086,-3.21672 35.69665,-0.42562 c 19.633154,-0.23409 72.854674,-0.42562 118.270034,-0.42562 h 82.57337 l 1.48125,1.39156 1.48125,1.39156 1.48125,-1.39156 1.48125,-1.39156 h 118.278 118.278 l -0.29505,3.55803 c -0.21019,2.53452 -0.69828,3.96132 -1.69677,4.96 l -1.40171,1.40197 -116.83917,0.32 -116.83917,0.32 -1.1659,1.44 c -1.40649,1.73715 -1.3456,1.7377 -2.64654,-0.0239 z M 52.480574,96.079379 c -1.009051,-0.74142 -1.076593,-3.91672 -0.922323,-43.36 l 0.166461,-42.559998 7.50801,-0.1802073 7.50801,-0.180207 10.73199,21.3002063 10.73199,21.300206 0.168628,-21.279996 0.168627,-21.2800023 h 8.631373 8.63137 v 43.5199983 43.52 h -7.527754 -7.527755 l -10.544489,-21.12 c -5.799469,-11.616 -10.763979,-21.12 -11.032244,-21.12 -0.268266,0 -0.487756,9.324 -0.487756,20.72 v 20.72 l -2,0.4 c -3.579605,0.71592 -13.048292,0.44927 -14.204138,-0.4 z m 65.310796,-4.81266 -5.58666,-5.61266 V 53.456499 21.258946 l 5.23616,-5.709782 5.23616,-5.7097833 h 16.35118 16.35118 l 5.61266,5.5866563 5.61266,5.586657 -0.0474,29.773335 c -0.0261,16.37534 -0.24209,30.98814 -0.48,32.47289 -0.36457,2.27523 -1.27751,3.55779 -5.80842,8.16 l -5.37586,5.46046 h -15.75748 -15.75749 z m 30.89334,-37.90734 V 27.119383 h -9.6 -9.6 v 26.239996 26.24 h 9.6 9.6 z m 27.97997,39.82144 -3.65997,-3.69856 v -5.58144 -5.58144 h 17.92 17.92 v -8.32 -8.32 h -12.62734 -12.62734 l -5.61266,-5.58666 -5.61266,-5.58665 V 35.759383 21.012694 l 5.61266,-5.586657 5.61266,-5.5866563 h 17.60583 17.60583 l 3.98151,4.0172193 3.98151,4.01722 v 4.94278 4.942783 h -17.92 -17.92 v 8 8 h 12.30734 12.30734 l 5.61266,5.586646 5.61266,5.58666 v 15.14864 15.14865 l -5.51718,5.8247 -5.51718,5.8247 h -17.70286 -17.70285 z m 73.94003,3.28439 c -0.62599,-0.26018 -0.8,-7.83783 -0.8,-34.83917 V 27.119383 h -10.88 -10.88 V 18.479381 9.8393807 h 30.08 30.08 v 8.6400003 8.640002 h -10.56 c -8.01697,0 -10.56197,0.19265 -10.56818,0.8 -0.004,0.44 -0.0765,16.063996 -0.16,34.719996 l -0.15182,33.92 -7.68,0.11916 c -4.224,0.0655 -8.04,-0.0305 -8.48,-0.21333 z m 38.88,-43.10583 V 9.8393807 h 21.58734 21.58734 l 5.61266,5.5866563 5.61266,5.586657 v 15.999979 15.999966 l -5.05984,5.13337 -5.05984,5.13337 6.03134,15.22231 c 3.31723,8.37227 6.09816,15.86027 6.17984,16.64 0.1427,1.36231 -0.089,1.42549 -5.9315,1.61753 -3.344,0.10991 -7.54758,0.0227 -9.34128,-0.19372 l -3.26129,-0.39356 -2.94688,-7.48628 c -1.62079,-4.11746 -4.41177,-11.27723 -6.2022,-15.91062 l -3.25532,-8.42434 -3.81768,-0.21566 -3.81768,-0.21566 -0.14399,12.48 c -0.0792,6.864 -0.0755,13.99793 0.008,15.85318 0.13978,3.09908 0.0182,3.42412 -1.49651,4 -0.90676,0.34475 -4.94191,0.62682 -8.96699,0.62682 h -7.31834 z m 36.33711,-16.799996 0.17711,-9.44 h -9.29711 -9.29711 v 9.61757 9.617566 l 9.12,-0.17757 9.12,-0.17757 z m 28.12955,54.707336 -5.58666,-5.61266 V 53.012589 20.371121 l 5.29337,-5.26587 5.29337,-5.2658703 h 16.10783 16.10784 l 5.46517,5.6000003 5.46517,5.6 0.0136,32.307338 0.0136,32.30734 -5.58665,5.61266 -5.58666,5.61266 h -15.70669 -15.70669 z m 30.89334,-37.90734 V 27.119383 h -9.6 -9.6 v 26.239996 26.24 h 9.6 9.6 z m 23.68,0 V 9.8393807 h 7.93488 7.93487 l 7.47711,18.7200023 c 4.1124,10.296 7.7147,18.966586 8.0051,19.267976 0.65211,0.67678 1.64009,-1.54217 9.71876,-21.827976 l 6.4356,-16.1600023 h 7.92684 7.92684 v 43.5199983 43.52 h -8.21949 -8.21949 l -0.42051,-10.66222 c -0.23128,-5.86422 -0.43469,-14.57622 -0.45202,-19.36 l -0.0315,-8.69778 -4.35813,10.91323 c -5.97375,14.95894 -5.07282,13.72677 -10.03658,13.72677 h -4.17271 l -1.48062,-3.36 c -0.81434,-1.848 -3.03049,-7.248 -4.92478,-12 l -3.44416,-8.64 -0.17002,18.52842 c -0.12705,13.84453 -0.36973,18.65527 -0.96,19.0302 -0.43449,0.27598 -4.31798,0.50619 -8.62998,0.51158 l -7.84,0.01 z m 75.31582,37.84241 -5.55582,-5.67759 V 53.268449 21.012694 l 5.61266,-5.586657 5.61266,-5.5866563 h 15.97468 15.97468 l 5.61266,5.5866563 5.61266,5.586657 v 32.025975 32.02599 l -5.93202,5.90736 -5.93203,5.90736 h -15.71215 -15.71216 z m 30.92418,-37.84241 V 27.119383 h -9.6 -9.6 v 26.239996 26.24 h 9.6 9.6 z M 215.9621,-2.9204993 c -3.35019,-0.855512 -5.0539,-1.979877 -5.76658,-3.80568 -0.35947,-0.920942 -0.84908,-6.2104397 -1.08801,-11.7544397 l -0.43442,-10.08 h 4.48233 4.48232 l 0.29489,8.695116 c 0.22273,6.56724 0.51725,8.835851 1.20349,9.2702 1.444,0.9139657 13.11325,0.7376067 13.89975,-0.210068 0.36733,-0.442614 0.87521,-4.618614 1.1286,-9.28 l 0.46072,-8.475248 h 4.36433 4.36434 l -0.36366,9.76 c -0.40695,10.9221387 -1.18927,13.6341057 -4.36837,15.1434037 -2.23437,1.060779 -19.2272,1.613252 -22.65973,0.736716 z m 35.44261,0.158119 c -4.84764,-0.631141 -7.06915,-2.9872 -6.60915,-7.009443 0.19586,-1.7126047 0.41429,-1.8407967 3.43791,-2.0176907 2.51614,-0.147204 3.56184,0.09999 4.73793,1.12 1.31092,1.1369557 2.37905,1.3088947 8.13124,1.3088947 6.19541,0 6.62207,-0.08247 6.62207,-1.2799997 0,-0.704 -0.072,-1.286162 -0.16,-1.293694 -0.088,-0.0075 -4.29141,-0.280372 -9.34092,-0.60631 -9.93127,-0.64105 -11.77952,-1.263509 -12.986,-4.373467 -0.79467,-2.048442 -0.32151,-7.169888 0.83324,-9.018943 1.47475,-2.361445 3.66319,-2.724024 15.15435,-2.510757 10.19196,0.189155 11.0416,0.297756 12.31657,1.574288 1.7716,1.773767 2.7096,6.412566 1.39842,6.915714 -2.25151,0.863986 -6.59989,0.339504 -7.68416,-0.926831 -0.9471,-1.106139 -1.88075,-1.278669 -6.87373,-1.2702 -5.95582,0.0101 -8.55231,0.720149 -6.78748,1.85613 0.50065,0.322261 3.95665,0.767649 7.68,0.98975 9.44018,0.563118 11.29153,0.901285 13.21426,2.413707 1.60235,1.260405 1.67144,1.560915 1.45496,6.327955 -0.2781,6.1239197 -0.8671,6.8303567 -6.3564,7.6238247 -3.99873,0.578008 -14.33081,0.678625 -18.18311,0.177072 z m 33.92,0 c -6.36867,-0.829173 -7.36,-2.60712 -7.36,-13.2001467 0,-11.132993 0.7455,-11.913704 12.33609,-12.918805 2.73685,-0.237331 7.45388,-0.225112 10.48229,0.02715 6.87025,0.572289 8.96241,2.066795 9.5943,6.85356 l 0.4013,3.04 h -4.22447 c -3.56946,0 -4.33069,-0.198466 -4.90951,-1.28 -0.61348,-1.146297 -1.33448,-1.278976 -6.90252,-1.2702 -3.41961,0.0054 -6.62945,0.270505 -7.13296,0.589143 -1.19164,0.754102 -1.72416,7.698473 -0.73244,9.551505 0.68067,1.271857 1.23467,1.369552 7.76628,1.369552 6.91333,0 7.0437,-0.0273 7.64164,-1.6 0.55597,-1.462306 0.94015,-1.6 4.46416,-1.6 h 3.85584 v 3.164311 c 0,4.1295867 -1.79678,6.3396837 -5.77864,7.1079027 -2.81819,0.543713 -15.75453,0.653846 -19.50136,0.166025 z m 32.37565,-0.129274 c -3.69062,-0.656947 -5.81565,-3.033735 -5.81565,-6.504654 v -2.5243107 h 3.42208 c 2.50345,0 3.81825,0.343602 4.89792,1.28 1.27112,1.1024377 2.39447,1.2799997 8.09793,1.2799997 6.11302,0 6.62207,-0.09485 6.62207,-1.2339477 0,-1.36813 -1.33571,-1.603906 -12.8,-2.259413 -8.32891,-0.476233 -9.21613,-1.161521 -9.46846,-7.313474 -0.17946,-4.375546 -0.0959,-4.687236 1.75127,-6.534435 l 1.93972,-1.939723 11.58554,0.200497 11.58553,0.200496 1.5432,1.795689 c 1.06659,1.241093 1.5432,2.575318 1.5432,4.32 v 2.524311 h -3.52626 c -2.73428,0 -3.77242,-0.287485 -4.62224,-1.28 -0.95829,-1.119208 -1.88796,-1.28 -7.40066,-1.28 -5.65905,0 -6.28285,0.114695 -6.09142,1.12 0.1795,0.942604 1.27665,1.198682 6.92693,1.616765 10.69463,0.79133 12.19008,1.081479 13.78274,2.674144 3.16167,3.161667 2.43393,11.2981287 -1.1648,13.0229287 -2.09173,1.002531 -18.49428,1.603102 -22.80864,0.835127 z m 32.37483,-0.01267 c -3.14372,-0.65569 -4.8508,-2.392641 -5.34509,-5.438608 -0.47867,-2.9497037 0.24859,-3.5542127 4.29238,-3.5678887 2.11411,-0.0072 3.19415,0.336357 3.99373,1.2702 0.9662,1.1284337 1.88796,1.2799997 7.78447,1.2799997 6.46434,0 8.38646,-0.553577 6.94099,-1.9990367 -0.33412,-0.33413 -4.47633,-0.866956 -9.2049,-1.184059 -12.51926,-0.839557 -13.37206,-1.366283 -13.37206,-8.259141 0,-5.808132 1.35879,-7.083313 8.34442,-7.830992 2.97857,-0.3188 8.2476,-0.393938 11.70896,-0.166974 5.40289,0.354272 6.55749,0.634904 8.16,1.983325 1.54267,1.298078 1.86662,2.060605 1.86662,4.39377 v 2.823108 h -2.96446 c -1.86676,0 -3.74665,-0.483423 -5.07687,-1.305546 -1.7856,-1.103562 -2.98548,-1.27684 -7.75554,-1.12 -4.50669,0.14818 -5.64313,0.378853 -5.64313,1.145439 0,0.778177 1.78985,1.092851 9.45469,1.662233 8.43708,0.626749 9.62249,0.85999 11.01382,2.167081 3.09893,2.91129 2.64179,11.0468667 -0.74544,13.2662597 -1.35463,0.887589 -3.47678,1.120099 -11.33487,1.241888 -5.31751,0.08241 -10.77048,-0.08006 -12.11772,-0.361058 z"
       id="path1" />
  </g>
</svg>
