<svg width="238.43mm" height="62.113mm" version="1.1" viewBox="0 0 238.43 62.113" xml:space="preserve" xmlns="http://www.w3.org/2000/svg"><g transform="translate(8.8108 -133.59)"><path d="m16.733 193.59c-0.0064-0.11238-3.7113-13.322-8.2332-29.354l-8.2216-29.149-4.18-0.0752c-3.3032-0.0594-4.1534-2e-3 -4.053 0.27243 0.06988 0.19118 3.7638 13.281 8.2086 29.088 4.4449 15.807 8.1323 28.894 8.1943 29.081 0.08371 0.2528 1.1669 0.34053 4.2046 0.34053 2.2505 0 4.0866-0.092 4.0802-0.20431zm18.057-0.13622c-0.06404-0.18729-3.5639-12.6-7.7774-27.583-4.2135-14.983-7.8969-28.07-8.1853-29.081l-0.52429-1.8389h-6.7069c-3.6888 0-6.7097 0.092-6.7132 0.20432-0.00344 0.11238 3.6929 13.352 8.214 29.422l8.2202 29.217h6.7947c5.3222 0 6.7694-0.0738 6.6782-0.34054zm27.97-0.0506c-0.07981-0.21507-0.0415-0.4296 0.08514-0.47674 0.12664-0.0472 0.26817-0.45348 0.31452-0.90298 0.04635-0.4495 0.18957-0.89626 0.31827-0.99282 0.1287-0.0966 0.24725-0.55599 0.26346-1.021 0.0162-0.46498 0.13106-0.8457 0.25524-0.84604s0.15754-0.18451 0.07413-0.40925c-0.0834-0.22475-0.02298-0.40863 0.13427-0.40863 0.15725 0 0.22391-0.24519 0.14812-0.54486-0.07579-0.29966-0.01766-0.54485 0.12919-0.54485 0.14684 0 0.20168-0.17596 0.12186-0.39103-0.07981-0.21507-0.0415-0.4296 0.08514-0.47674 0.12664-0.0472 0.26817-0.45348 0.31452-0.90298 0.04635-0.4495 0.18957-0.89626 0.31827-0.99282 0.1287-0.0966 0.24725-0.55599 0.26345-1.021 0.0162-0.46498 0.13106-0.8457 0.25524-0.84604 0.12418-3.4e-4 0.15754-0.18451 0.07413-0.40925-0.0834-0.22475-0.02298-0.40864 0.13427-0.40864 0.15725 0 0.22391-0.24518 0.14812-0.54485-0.07579-0.29966-0.01766-0.54485 0.12919-0.54485 0.14684 0 0.20168-0.17596 0.12186-0.39103-0.07981-0.21507-0.0415-0.42961 0.08514-0.47674 0.12663-0.0472 0.26817-0.45348 0.31452-0.90298 0.04635-0.4495 0.18957-0.89626 0.31827-0.99282 0.1287-0.0966 0.24725-0.556 0.26346-1.021 0.0162-0.46498 0.13106-0.8457 0.25524-0.84604s0.15754-0.18451 0.07413-0.40926c-0.0834-0.22474-0.02298-0.40863 0.13427-0.40863 0.15725 0 0.22391-0.24518 0.14812-0.54485-0.07578-0.29966-0.01765-0.54485 0.12919-0.54485s0.19874-0.18388 0.11533-0.40863c-0.0834-0.22475-0.02298-0.40864 0.13427-0.40864 0.15725 0 0.22391-0.24518 0.14812-0.54484-0.07578-0.29966-0.01765-0.54485 0.12919-0.54485s0.20168-0.17596 0.12186-0.39103c-0.07982-0.21507-0.01744-0.43505 0.13861-0.48883 0.15605-0.0538 0.29758-0.4905 0.31452-0.97046 0.01694-0.47998 0.13239-0.87296 0.25657-0.8733 0.12418-3.4e-4 0.15754-0.18451 0.07413-0.40926-0.0834-0.22474-0.02298-0.40863 0.13427-0.40863 0.15725 0 0.22391-0.24518 0.14812-0.54485-0.07578-0.29966-0.01765-0.54485 0.12919-0.54485 0.14684 0 0.19874-0.18388 0.11533-0.40863-0.0834-0.22475-0.02298-0.40864 0.13427-0.40864 0.15725 0 0.22391-0.24518 0.14812-0.54484-0.07578-0.29966-0.01765-0.54485 0.12919-0.54485 0.14684 0 0.20168-0.17597 0.12186-0.39103-0.07982-0.21507-0.0415-0.42961 0.08513-0.47675 0.12663-0.0472 0.26817-0.45348 0.31452-0.90297 0.04635-0.4495 0.18957-0.89628 0.31827-0.99283 0.1287-0.0966 0.24725-0.55599 0.26345-1.021 0.0162-0.46497 0.13106-0.84569 0.25524-0.84603 0.12418-3.4e-4 0.15754-0.18451 0.07413-0.40926-0.0834-0.22475-0.02298-0.40864 0.13427-0.40864 0.15725 0 0.22391-0.24518 0.14812-0.54484-0.07578-0.29966-0.01766-0.54485 0.12919-0.54485 0.14684 0 0.20168-0.17597 0.12186-0.39104-0.07981-0.21506-0.0415-0.4296 0.08513-0.47674 0.12663-0.0471 0.26817-0.45348 0.31452-0.90297 0.04635-0.4495 0.18957-0.89628 0.31827-0.99283 0.1287-0.0966 0.24725-0.55599 0.26346-1.021 0.0162-0.46497 0.13106-0.84569 0.25524-0.84603 0.12418-3.4e-4 0.15754-0.18451 0.07413-0.40926-0.0834-0.22475-0.02298-0.40864 0.13427-0.40864 0.15725 0 0.22391-0.24518 0.14812-0.54484-0.07579-0.29966-0.01766-0.54485 0.12919-0.54485 0.14684 0 0.20168-0.17597 0.12186-0.39104-0.07981-0.21507-0.0415-0.4296 0.08514-0.47674 0.12664-0.0471 0.26817-0.45348 0.31452-0.90297 0.04635-0.4495 0.18957-0.89628 0.31827-0.99283 0.1287-0.0966 0.24725-0.55599 0.26346-1.021 0.0162-0.46497 0.13106-0.84569 0.25524-0.84603 0.12418-3.5e-4 0.15754-0.18451 0.07413-0.40926-0.0834-0.22475-0.02298-0.40864 0.13427-0.40864 0.15725 0 0.22391-0.24518 0.14812-0.54484-0.07579-0.29967-0.01766-0.54485 0.12919-0.54485 0.14684 0 0.19874-0.18388 0.11533-0.40863-0.0834-0.22476-0.02298-0.40864 0.13427-0.40864 0.15725 0 0.22391-0.24518 0.14812-0.54485-0.07578-0.29967-0.01764-0.54484 0.12919-0.54484 0.14684 0 0.20168-0.17597 0.12186-0.39104-0.07982-0.21507-0.0298-0.43079 0.11113-0.47937 0.14094-0.0486 0.28247-0.45491 0.31452-0.90297 0.03205-0.44806 0.16357-0.89365 0.29226-0.99021 0.1287-0.0966 0.24725-0.55599 0.26346-1.021 0.0162-0.46498 0.13106-0.84568 0.25524-0.84603 0.12418-3.4e-4 0.15754-0.1845 0.07413-0.40926-0.0834-0.22475-0.02298-0.40863 0.13427-0.40863 0.15725 0 0.22391-0.24519 0.14812-0.54485-0.07578-0.29967-0.01765-0.54485 0.12919-0.54485 0.14684 0 0.20168-0.17596 0.12186-0.39103-0.07981-0.21507-0.0415-0.4296 0.08512-0.47675 0.12663-0.0472 0.26817-0.45347 0.31452-0.90298l0.08428-0.81727-9.8312-0.0715c-5.9884-0.0436-9.7722 0.0273-9.6803 0.18105 0.083 0.13888 0.01583 0.29905-0.14926 0.35596-0.16509 0.0569-0.31402 0.49616-0.33096 0.97613-0.01694 0.47997-0.13354 0.87295-0.25911 0.87329s-0.16631 0.2458-0.09053 0.54546c0.07579 0.29967 0.01651 0.54486-0.13173 0.54486-0.14823 0-0.209 0.2393-0.13503 0.53178 0.07397 0.29248 0.02601 0.56918-0.10658 0.61488-0.13259 0.0457-0.2682 0.4804-0.30135 0.966-0.03316 0.4856-0.16302 0.88316-0.2886 0.88345-0.12558 3e-4 -0.16631 0.24573-0.09053 0.54539 0.07579 0.29967 0.01651 0.54485-0.13173 0.54485-0.14824 0-0.20751 0.24518-0.13173 0.54485 0.07578 0.29967 0.05492 0.54484-0.04636 0.54484-0.25935 0-0.86062 2.4365-0.67706 2.7436 0.08319 0.1392 0.01189 0.25309-0.15846 0.25309-0.18002 0-0.25203 0.22817-0.17194 0.54485 0.07578 0.29966 0.01651 0.54484-0.13173 0.54484-0.14823 0-0.209 0.23931-0.13503 0.53179 0.07397 0.29248 0.02601 0.56918-0.10658 0.61488-0.13259 0.0457-0.2682 0.4804-0.30135 0.966-0.03316 0.4856-0.16302 0.88315-0.2886 0.88345-0.12558 3e-4 -0.16631 0.24572-0.09053 0.5454 0.07579 0.29966 0.01651 0.54484-0.13173 0.54484-0.14824 0-0.209 0.2393-0.13503 0.53178 0.07396 0.29249 0.02601 0.56918-0.10658 0.61489-0.13259 0.0457-0.2682 0.48039-0.30135 0.966-0.03316 0.4856-0.16302 0.88315-0.2886 0.88345-0.12558 2.9e-4 -0.16631 0.24572-0.09053 0.54539 0.07579 0.29967 0.01651 0.54484-0.13173 0.54484-0.14823 0-0.20751 0.24519-0.13173 0.54485 0.07578 0.29967 0.01651 0.54486-0.13173 0.54486-0.14823 0-0.209 0.23929-0.13503 0.53178 0.07396 0.29248 0.02601 0.56917-0.10658 0.61488-0.13259 0.0457-0.2682 0.4804-0.30135 0.966-0.03316 0.4856-0.16302 0.88316-0.2886 0.88345-0.12557 3e-4 -0.16631 0.24573-0.09053 0.54539 0.07579 0.29967 0.01651 0.54485-0.13173 0.54485-0.14824 0-0.209 0.2393-0.13503 0.53179 0.07396 0.29247 0.02601 0.56917-0.10658 0.61487-0.13259 0.0457-0.2682 0.48041-0.30135 0.966-0.03316 0.48561-0.16302 0.88316-0.2886 0.88346s-0.16631 0.24572-0.09053 0.54539c0.07579 0.29966 0.01651 0.54485-0.13173 0.54485-0.14823 0-0.20751 0.24517-0.13173 0.54484 0.07578 0.29966 0.01651 0.54485-0.13173 0.54485-0.14823 0-0.20751 0.24518-0.13173 0.54485 0.09686 0.38302 0.0082 0.54466-0.29859 0.54422-0.30884-4.4e-4 -0.44538-0.25568-0.46717-0.87329-0.01694-0.47996-0.15254-0.91463-0.30135-0.96592-0.14881-0.0513-0.21004-0.33256-0.13607-0.62504 0.07396-0.29249 0.0132-0.53178-0.13503-0.53178-0.14824 0-0.20751-0.24519-0.13173-0.54485 0.07579-0.29967 0.01651-0.54486-0.13173-0.54486-0.14824 0-0.20751-0.24517-0.13173-0.54484 0.07579-0.29967 0.03505-0.54509-0.09053-0.54539-0.12558-3e-4 -0.25544-0.39785-0.2886-0.88345-0.03316-0.4856-0.16876-0.92031-0.30135-0.966-0.13259-0.0457-0.18055-0.3224-0.10658-0.61489 0.07397-0.29247 0.0132-0.53178-0.13503-0.53178-0.14823 0-0.20751-0.24518-0.13173-0.54484 0.07579-0.29968 0.03505-0.5451-0.09053-0.5454-0.12557-3e-4 -0.25544-0.39785-0.2886-0.88344-0.03316-0.48561-0.16876-0.92031-0.30135-0.96601s-0.18055-0.3224-0.10658-0.61488c0.07396-0.29248 0.0132-0.53179-0.13503-0.53179-0.14824 0-0.20751-0.24517-0.13173-0.54484 0.07579-0.29967 0.01651-0.54485-0.13173-0.54485-0.14823 0-0.20751-0.24519-0.13173-0.54485 0.07578-0.29967 0.03505-0.54509-0.09053-0.54539-0.12558-3e-4 -0.25544-0.39785-0.2886-0.88345-0.03316-0.4856-0.16876-0.9203-0.30135-0.966s-0.18055-0.3224-0.10658-0.61488c0.07396-0.29248 0.0132-0.53179-0.13503-0.53179-0.14823 0-0.20751-0.24518-0.13173-0.54485 0.07579-0.29966 0.03505-0.54508-0.09053-0.54538-0.12557-3e-4 -0.25544-0.39785-0.2886-0.88346-0.03316-0.4856-0.16876-0.9203-0.30135-0.966s-0.18055-0.3224-0.10658-0.61488c0.07396-0.29248 0.0132-0.53178-0.13503-0.53178-0.14824 0-0.20751-0.24519-0.13173-0.54485 0.07578-0.29967 0.01651-0.54484-0.13173-0.54484-0.14823 0-0.20751-0.24519-0.13173-0.54486 0.07579-0.29966 0.03505-0.54508-0.09053-0.54538-0.12558-3e-4 -0.25544-0.39785-0.2886-0.88346-0.03316-0.48559-0.16876-0.9203-0.30135-0.966s-0.18055-0.3224-0.10658-0.61488c0.07396-0.29248 0.0132-0.53178-0.13503-0.53178-0.14823 0-0.20751-0.24519-0.13173-0.54485 0.07579-0.29967 0.03505-0.54509-0.09053-0.54539-0.12558-3e-4 -0.25544-0.39785-0.2886-0.88345-0.03316-0.4856-0.16876-0.92031-0.30135-0.96601s-0.18055-0.32239-0.10658-0.61487c0.07396-0.29249 0.0132-0.53179-0.13503-0.53179-0.14824 0-0.20751-0.24518-0.13173-0.54485 0.08009-0.31668 0.0081-0.54485-0.17194-0.54485-0.17035 0-0.23646-0.12259-0.14691-0.27242 0.10744-0.17977-3.2026-0.27242-9.7323-0.27242-9.7195 0-9.8951 9e-3 -9.8951 0.54484 0 0.29967 0.11483 0.54485 0.25519 0.54485 0.14035 0 0.18695 0.18388 0.10354 0.40863-0.0834 0.22476-0.0315 0.40864 0.11533 0.40864 0.14684 0 0.20497 0.24518 0.12919 0.54485-0.07579 0.29967-0.0092 0.54484 0.14812 0.54484 0.15725 0 0.21767 0.1839 0.13427 0.40865-0.0834 0.22474-0.0315 0.40863 0.11533 0.40863 0.14684 0 0.20497 0.24518 0.12919 0.54485-0.07578 0.29966-0.0092 0.54485 0.14812 0.54485 0.15725 0 0.21767 0.18388 0.13427 0.40863-0.0834 0.22475-0.05005 0.40892 0.07413 0.40926 0.12418 3.4e-4 0.23904 0.38105 0.25524 0.84604 0.0162 0.46497 0.13476 0.9244 0.26346 1.021 0.1287 0.0966 0.27192 0.54333 0.31827 0.99282 0.04635 0.4495 0.18788 0.85584 0.31452 0.90298 0.12663 0.0472 0.16494 0.26167 0.08514 0.47674-0.07981 0.21507-0.02497 0.39104 0.12186 0.39104 0.14684 0 0.20497 0.24518 0.12919 0.54485-0.07578 0.29966-0.0092 0.54485 0.14812 0.54485 0.15725 0 0.21767 0.18388 0.13427 0.40863-0.0834 0.22475-0.05005 0.40892 0.07413 0.40926 0.12418 3.4e-4 0.23904 0.38105 0.25524 0.84604 0.0162 0.46497 0.13476 0.9244 0.26346 1.021 0.1287 0.0966 0.27192 0.54333 0.31827 0.99282 0.04635 0.4495 0.18788 0.85585 0.31452 0.90298 0.12663 0.0472 0.16494 0.26167 0.08513 0.47674-0.07981 0.21507-0.02497 0.39104 0.12186 0.39104 0.14684 0 0.20497 0.24518 0.12919 0.54485-0.07578 0.29966-0.0092 0.54485 0.14812 0.54485 0.15725 0 0.21767 0.18388 0.13427 0.40863-0.0834 0.22475-0.05005 0.40892 0.07413 0.40926 0.12418 3.4e-4 0.23903 0.38105 0.25524 0.84604 0.0162 0.46497 0.13476 0.9244 0.26345 1.021 0.1287 0.0966 0.27192 0.54333 0.31827 0.99282 0.04635 0.4495 0.18788 0.85585 0.31452 0.90298 0.12664 0.0472 0.16494 0.26167 0.08513 0.47674-0.07981 0.21507-0.02497 0.39104 0.12186 0.39104 0.14684 0 0.20497 0.24518 0.12919 0.54485-0.07578 0.29966-0.0092 0.54485 0.14812 0.54485 0.15725 0 0.21767 0.18388 0.13427 0.40863-0.0834 0.22475-0.05005 0.40892 0.07413 0.40926 0.12418 3.4e-4 0.23904 0.38105 0.25524 0.84604 0.0162 0.46497 0.13476 0.9244 0.26346 1.021 0.1287 0.0966 0.26022 0.54215 0.29226 0.99021 0.03205 0.44805 0.17358 0.8544 0.31452 0.90298 0.14094 0.0486 0.19095 0.26428 0.11113 0.47935-0.07981 0.21507-0.02497 0.39104 0.12186 0.39104 0.14684 0 0.20497 0.24518 0.12919 0.54485-0.07578 0.29966-0.0092 0.54485 0.14812 0.54485 0.15725 0 0.21767 0.18388 0.13427 0.40863-0.0834 0.22475-0.0315 0.40864 0.11533 0.40864 0.14684 0 0.20497 0.24518 0.12919 0.54484-0.07579 0.29968-0.0092 0.54485 0.14812 0.54485 0.15725 0 0.21767 0.18388 0.13427 0.40864-0.0834 0.22475-0.05005 0.40891 0.07413 0.40925 0.12418 3.5e-4 0.23904 0.38106 0.25524 0.84604 0.0162 0.46497 0.13476 0.92442 0.26346 1.021 0.1287 0.0966 0.27192 0.54333 0.31827 0.99284 0.04635 0.44949 0.18788 0.85583 0.31452 0.90298 0.12663 0.0471 0.16494 0.26167 0.08514 0.47674-0.07981 0.21507-0.02497 0.39103 0.12186 0.39103 0.14684 0 0.20497 0.24518 0.12919 0.54484-0.07579 0.29968-0.0092 0.54485 0.14812 0.54485 0.15725 0 0.21767 0.18388 0.13427 0.40864-0.0834 0.22475-0.05005 0.40891 0.07413 0.40925 0.12418 3.5e-4 0.23904 0.38106 0.25524 0.84604 0.0162 0.46497 0.13476 0.92442 0.26345 1.021 0.1287 0.0966 0.27192 0.54333 0.31827 0.99284 0.04635 0.4495 0.18788 0.85583 0.31452 0.90298 0.12663 0.0471 0.16494 0.26167 0.08514 0.47674-0.07981 0.21507-0.02497 0.39103 0.12186 0.39103 0.14684 0 0.20497 0.24518 0.12919 0.54484-0.07578 0.29968-0.0092 0.54485 0.14812 0.54485 0.15725 0 0.21767 0.18389 0.13427 0.40864-0.0834 0.22475-0.05005 0.40891 0.07413 0.40925 0.12418 3.5e-4 0.23904 0.38106 0.25524 0.84604 0.0162 0.46497 0.13476 0.92442 0.26346 1.021 0.1287 0.0966 0.27192 0.54333 0.31827 0.99284 0.04635 0.4495 0.18788 0.85583 0.31452 0.90298 0.12663 0.0472 0.16494 0.26167 0.08514 0.47674-0.07981 0.21507-0.02497 0.39103 0.12186 0.39103 0.14684 0 0.20497 0.24518 0.12919 0.54484-0.07579 0.29968-0.0092 0.54485 0.14812 0.54485 0.15725 0 0.21767 0.18389 0.13427 0.40864-0.0834 0.22475-0.0315 0.40863 0.11533 0.40863 0.14684 0 0.20497 0.24519 0.12919 0.54486-0.07579 0.29966-0.0092 0.54484 0.14812 0.54484 0.15725 0 0.21767 0.18389 0.13427 0.40864-0.0834 0.22475-0.05005 0.40892 0.07413 0.40926 0.12418 3.4e-4 0.23964 0.39332 0.25657 0.87328 0.01694 0.47997 0.15847 0.91668 0.31452 0.97047 0.15605 0.0538 0.21842 0.27376 0.13861 0.48883-0.07981 0.21507-0.0176 0.39103 0.13826 0.39103 0.15586 0 0.21513 0.18388 0.13173 0.40863-0.13342 0.35952 1.2801 0.40864 11.76 0.40864 10.242 0 11.891-0.0548 11.767-0.39103zm36.709-8.4627v-8.8538h32.932v-15.528h-32.932v-7.083h32.932v-18.525h-52.691v58.844h19.759zm71.321 8.6852c-0.0897-0.0928 0.0159-0.35374 0.23469-0.57997s0.33542-0.57941 0.25918-0.78484c-0.0763-0.20543-0.0111-0.37351 0.14476-0.37351s0.21514-0.18388 0.13174-0.40864c-0.0834-0.22475-0.0241-0.40863 0.13172-0.40863 0.15586 0 0.21513-0.18388 0.13173-0.40864-0.0834-0.22475-0.0484-0.40863 0.0778-0.40863 0.29626 0 0.84644-1.622 0.65743-1.9383-0.0793-0.13261-6e-3 -0.24113 0.16307-0.24113 0.16896 0 0.23896-0.18388 0.15554-0.40863-0.0834-0.22474-0.0241-0.40864 0.13173-0.40864 0.15586 0 0.21278-0.19024 0.12648-0.42277-0.09-0.24244-0.0458-0.3518 0.10354-0.25635 0.23794 0.15205 0.36265-0.28458 0.33122-1.1597-7e-3 -0.1873 0.10583-0.34053 0.25013-0.34053 0.14431 0 0.19413-0.18389 0.11073-0.40864s-0.0241-0.40863 0.13172-0.40863c0.15586 0 0.21277-0.19026 0.12648-0.42279-0.09-0.24244-0.0458-0.35178 0.10354-0.25635 0.23794 0.15207 0.36265-0.28458 0.33121-1.1597-7e-3 -0.18729 0.10584-0.34053 0.25014-0.34053s0.19413-0.18389 0.11072-0.40865c-0.0834-0.22474-0.027-0.40863 0.1255-0.40863 0.15242 0 0.2281-0.15215 0.16815-0.3381-0.0599-0.18595 0.0556-0.50823 0.25666-0.71618 0.2011-0.20794 0.30326-0.54617 0.22702-0.7516-0.0763-0.20543-0.011-0.37351 0.14476-0.37351 0.15586 0 0.21514-0.18388 0.13173-0.40863-0.0834-0.22475-0.0269-0.40864 0.1255-0.40864 0.15243 0 0.22809-0.15214 0.16815-0.33809-0.0599-0.18596 0.0556-0.50824 0.25665-0.71619 0.2011-0.20795 0.30326-0.54617 0.22703-0.75159-0.0763-0.20544-0.011-0.37351 0.14476-0.37351 0.15586 0 0.21514-0.1839 0.13173-0.40865-0.0834-0.22474-0.0241-0.40863 0.13173-0.40863 0.15585 0 0.21513-0.18389 0.13173-0.40864-0.0834-0.22474-0.0484-0.40863 0.0778-0.40863 0.29626 0 0.84645-1.622 0.65744-1.9383-0.0793-0.13262-6e-3 -0.24113 0.16307-0.24113 0.16895 0 0.23895-0.18388 0.15554-0.40864-0.0834-0.22475-0.0241-0.40863 0.13173-0.40863 0.15586 0 0.21277-0.19026 0.12647-0.42279-0.09-0.24244-0.0458-0.35178 0.10355-0.25635 0.23794 0.15207 0.36265-0.28458 0.33121-1.1597-7e-3 -0.18729 0.10584-0.34054 0.25014-0.34054s0.19413-0.18388 0.11073-0.40863c-0.0834-0.22474-0.027-0.40864 0.12549-0.40864 0.15243 0 0.22809-0.15214 0.16815-0.33809-0.06-0.18596 0.0556-0.50823 0.25665-0.71619 0.20111-0.20794 0.30327-0.54617 0.22704-0.75159-0.0763-0.20543-0.0111-0.37351 0.14476-0.37351 0.15585 0 0.21512-0.18389 0.13172-0.40864s-0.0241-0.40863 0.13173-0.40863c0.15585 0 0.21513-0.18389 0.13172-0.40864-0.0834-0.22475-0.10578-0.40863-0.0497-0.40863 0.0561 0 0.29078-0.075 0.52162-0.16655 0.30719-0.12189 0.37605-0.0489 0.25681 0.27242-0.0896 0.24143-0.0448 0.43897 0.0995 0.43897 0.14431 0 0.25686 0.15324 0.25014 0.34053-0.0315 0.87515 0.0933 1.3118 0.33121 1.1597 0.14934-0.0954 0.19351 0.0139 0.10354 0.25634-0.0863 0.23254-0.0294 0.42279 0.12648 0.42279 0.15585 0 0.21514 0.18388 0.13172 0.40863-0.0834 0.22476-0.0134 0.40864 0.15555 0.40864s0.24234 0.10852 0.16307 0.24113c-0.189 0.31622 0.36118 1.9383 0.65744 1.9383 0.12617 0 0.16117 0.18388 0.0778 0.40863-0.0834 0.22475-0.0134 0.40864 0.15554 0.40864 0.16896 0 0.24233 0.1085 0.16307 0.24113-0.18901 0.31622 0.36118 1.9382 0.65744 1.9382 0.12618 0 0.16117 0.18389 0.0778 0.40864-0.0834 0.22475-0.0241 0.40863 0.13173 0.40863 0.15585 0 0.21514 0.18389 0.13172 0.40864-0.0834 0.22475-0.0241 0.40863 0.13174 0.40863 0.15585 0 0.22099 0.16808 0.14476 0.37351-0.0763 0.20544 0.0259 0.54366 0.22703 0.7516 0.2011 0.20795 0.31659 0.53023 0.25665 0.71619-0.06 0.18595 0.0157 0.3381 0.16815 0.3381 0.15242 0 0.2089 0.18388 0.1255 0.40863-0.0834 0.22476-0.0241 0.40864 0.13173 0.40864 0.15585 0 0.22099 0.16808 0.14476 0.37351-0.0763 0.20543 0.0259 0.54364 0.22702 0.7516 0.20111 0.20794 0.31661 0.53023 0.25666 0.71618-0.0599 0.18595 0.0157 0.3381 0.16815 0.3381 0.15243 0 0.2089 0.18388 0.1255 0.40863s-0.0336 0.40864 0.11072 0.40864c0.1443 0 0.25686 0.15323 0.25014 0.34053-0.0315 0.87515 0.0933 1.3118 0.33121 1.1597 0.14934-0.0954 0.19351 0.0139 0.10354 0.25635-0.0863 0.23253-0.0294 0.42278 0.12647 0.42278s0.21514 0.18389 0.13173 0.40864c-0.0834 0.22475-0.0134 0.40863 0.15554 0.40863 0.16896 0 0.24235 0.10851 0.16308 0.24113-0.18901 0.31622 0.36118 1.9383 0.65744 1.9383 0.12617 0 0.16117 0.18388 0.0778 0.40863-0.0834 0.22476-0.0135 0.40864 0.15554 0.40864 0.16896 0 0.24233 0.10852 0.16307 0.24113-0.18901 0.31622 0.36117 1.9383 0.65743 1.9383 0.12618 0 0.16117 0.18388 0.0778 0.40863-0.0834 0.22475-0.0241 0.40864 0.13173 0.40864 0.15586 0 0.21513 0.18388 0.13172 0.40863-0.0834 0.22475-0.0241 0.40864 0.13174 0.40864 0.15585 0 0.22099 0.16808 0.14476 0.37351-0.0763 0.20542 0.0259 0.54364 0.22702 0.75159 0.2011 0.20795 0.3166 0.53023 0.25665 0.71619-0.0599 0.18595 0.0157 0.33809 0.16815 0.33809 0.15243 0 0.20891 0.18389 0.12551 0.40864-0.13328 0.35914 1.1567 0.40863 10.65 0.40863h10.801l0.16835-0.69358c0.0926-0.38148 0.0985-0.81055 0.0131-0.95348-0.0854-0.14294-0.0171-0.2599 0.15186-0.2599 0.16894 0 0.23894-0.18388 0.15554-0.40864-0.0834-0.22475-0.023-0.40863 0.13426-0.40863s0.22392-0.24519 0.14813-0.54485c-0.0758-0.29967-0.0176-0.54484 0.12919-0.54484 0.14683 0 0.19874-0.18389 0.11532-0.40864-0.0834-0.22475-0.023-0.40863 0.13428-0.40863 0.15724 0 0.2239-0.24519 0.14811-0.54485-0.0758-0.29967-0.0176-0.54486 0.1292-0.54486 0.14683 0 0.20167-0.17596 0.12186-0.39103-0.0799-0.21507-0.0415-0.4296 0.0851-0.47674 0.12663-0.0472 0.26816-0.45348 0.31451-0.90298 0.0463-0.44949 0.18957-0.89626 0.31827-0.99282 0.1287-0.0966 0.24725-0.55599 0.26346-1.021 0.0162-0.46498 0.13106-0.8457 0.25524-0.84603 0.12418-3.4e-4 0.15753-0.18452 0.0742-0.40926-0.0834-0.22475-0.023-0.40863 0.13427-0.40863 0.15725 0 0.22391-0.24519 0.14812-0.54485-0.0758-0.29967-0.0176-0.54486 0.12919-0.54486 0.14683 0 0.20167-0.17596 0.12186-0.39103-0.0799-0.21507-0.0415-0.4296 0.0851-0.47674 0.12664-0.0472 0.26816-0.45348 0.31451-0.90298 0.0463-0.4495 0.18958-0.89626 0.31828-0.99282 0.12869-0.0966 0.24725-0.55599 0.26345-1.021s0.13106-0.8457 0.25524-0.84604c0.12418-3.3e-4 0.15753-0.18451 0.0742-0.40925-0.0834-0.22475-0.023-0.40863 0.13426-0.40863s0.22392-0.24519 0.14813-0.54486c-0.0758-0.29966-0.0176-0.54485 0.12919-0.54485 0.14684 0 0.20167-0.17596 0.12186-0.39103-0.0798-0.21507-0.0415-0.4296 0.0851-0.47674 0.12664-0.0472 0.26817-0.45348 0.31452-0.90298 0.0463-0.4495 0.18957-0.89626 0.31827-0.99282 0.1287-0.0966 0.24725-0.55599 0.26345-1.021s0.13106-0.8457 0.25524-0.84604c0.12417-3.4e-4 0.15754-0.18451 0.0742-0.40925-0.0834-0.22475-0.023-0.40863 0.13427-0.40863 0.15725 0 0.2239-0.24519 0.14812-0.54486-0.0758-0.29966-0.0176-0.54485 0.1292-0.54485 0.14683 0 0.19872-0.18388 0.11532-0.40863s-0.023-0.40864 0.13427-0.40864c0.15725 0 0.22391-0.24517 0.14812-0.54484-0.0758-0.29967-0.0176-0.54485 0.12919-0.54485 0.14684 0 0.20167-0.17596 0.12187-0.39103-0.0799-0.21507-0.0415-0.42961 0.0851-0.47674 0.12664-0.0472 0.26817-0.45349 0.31452-0.90298 0.0463-0.4495 0.18957-0.89628 0.31827-0.99283 0.1287-0.0966 0.24725-0.55599 0.26345-1.021 0.0162-0.46497 0.13106-0.84569 0.25524-0.84603 0.12418-3.5e-4 0.15754-0.18451 0.0741-0.40926-0.0834-0.22475-0.023-0.40864 0.13428-0.40864 0.15724 0 0.2239-0.24517 0.14811-0.54484-0.0758-0.29967-0.0176-0.54485 0.1292-0.54485 0.14683 0 0.20166-0.17596 0.12185-0.39103-0.0798-0.21507-0.0415-0.42961 0.0851-0.47674 0.12663-0.0472 0.26816-0.45349 0.31451-0.90298 0.0463-0.4495 0.18957-0.89628 0.31827-0.99283 0.1287-0.0966 0.24725-0.55599 0.26346-1.021 0.0162-0.46497 0.13106-0.84569 0.25524-0.84603 0.12417-3.5e-4 0.15753-0.18451 0.0742-0.40926-0.0834-0.22475-0.023-0.40864 0.13426-0.40864s0.22391-0.24517 0.14813-0.54484c-0.0758-0.29967-0.0176-0.54485 0.12919-0.54485 0.14683 0 0.20167-0.17596 0.12185-0.39103-0.0798-0.21507-0.0415-0.42961 0.0851-0.47674 0.12664-0.0472 0.26816-0.45349 0.31451-0.90298 0.0463-0.44951 0.18958-0.89628 0.31828-0.99283 0.12869-0.0966 0.24725-0.55599 0.26345-1.021 0.0162-0.46497 0.13106-0.84569 0.25524-0.84603 0.12417-3.5e-4 0.15753-0.18451 0.0742-0.40926-0.0834-0.22475-0.023-0.40864 0.13426-0.40864s0.22391-0.24518 0.14813-0.54484c-0.0758-0.29967-0.0176-0.54485 0.12918-0.54485 0.14685 0 0.19874-0.18388 0.11534-0.40864-0.0834-0.22475-0.023-0.40863 0.13427-0.40863 0.15725 0 0.22391-0.24519 0.14812-0.54485-0.0758-0.29967-0.0176-0.54484 0.12919-0.54484 0.14684 0 0.20167-0.17598 0.12185-0.39105-0.0798-0.21506-0.0415-0.42959 0.0851-0.47674 0.12664-0.0472 0.26817-0.45347 0.31451-0.90298 0.0463-0.44949 0.18958-0.89626 0.31828-0.99282 0.12869-0.0966 0.24725-0.55599 0.26345-1.021 0.0162-0.46499 0.13106-0.8457 0.25524-0.84604 0.12417-3.4e-4 0.15753-0.1845 0.0741-0.40926-0.0834-0.22475-0.023-0.40863 0.13426-0.40863s0.22391-0.24519 0.14813-0.54485c-0.0758-0.29967-0.0176-0.54484 0.12919-0.54484 0.14684 0 0.20167-0.17598 0.12186-0.39105-0.0798-0.21506-0.0307-0.43047 0.10913-0.47866 0.13983-0.0482 0.28136-0.48494 0.31451-0.97055 0.0332-0.48559 0.1492-0.88314 0.25787-0.88344 0.10868-3e-4 0.1976-0.18443 0.1976-0.40918 0-0.35599-1.2768-0.40864-9.9103-0.40864-9.6994 0-9.9074 0.0113-9.7758 0.53179 0.074 0.29248 0.026 0.56918-0.10658 0.61487-0.1326 0.0457-0.2682 0.48041-0.30135 0.96601-0.0332 0.4856-0.16302 0.88315-0.2886 0.88345s-0.16631 0.24572-0.0905 0.5454c0.0758 0.29966 0.0165 0.54484-0.13172 0.54484-0.14824 0-0.20752 0.24518-0.13173 0.54485 0.0758 0.29966 0.0176 0.54485-0.12919 0.54485-0.14684 0-0.19874 0.18388-0.11533 0.40863 0.0834 0.22475 0.023 0.40864-0.13427 0.40864-0.15725 0-0.22391 0.24518-0.14812 0.54484 0.0758 0.29967 0.0165 0.54485-0.13173 0.54485s-0.209 0.23931-0.13503 0.53179c0.074 0.29247 0.0127 0.57375-0.13607 0.62504-0.14881 0.0513-0.28442 0.48595-0.30136 0.96593-0.0169 0.47996-0.13352 0.87294-0.25911 0.87328-0.12557 3.4e-4 -0.1678 0.23992-0.0938 0.53241 0.074 0.29248 0.026 0.56917-0.10659 0.61488-0.13259 0.0457-0.2682 0.48039-0.30135 0.966-0.0332 0.48561-0.16302 0.88316-0.2886 0.88346-0.12557 2.9e-4 -0.1678 0.23984-0.0938 0.53232s0.026 0.56918-0.10658 0.61487c-0.13259 0.0457-0.2682 0.48041-0.30135 0.96601-0.0332 0.4856-0.16302 0.88315-0.2886 0.88345s-0.16631 0.24572-0.0905 0.5454c0.0758 0.29966 0.0165 0.54484-0.13172 0.54484-0.14824 0-0.20752 0.24518-0.13174 0.54485 0.0758 0.29966 0.0176 0.54485-0.12918 0.54485-0.14683 0-0.19873 0.18388-0.11533 0.40863s0.023 0.40864-0.13427 0.40864c-0.15725 0-0.2239 0.24518-0.14812 0.54484 0.0758 0.29967 0.0165 0.54485-0.13173 0.54485s-0.209 0.23931-0.13503 0.53179c0.074 0.29247 0.0128 0.57375-0.13607 0.62504-0.14881 0.0513-0.28442 0.48595-0.30135 0.96593-0.0169 0.47996-0.13354 0.87294-0.25911 0.87328s-0.1678 0.23992-0.0938 0.53241c0.074 0.29248 0.026 0.56917-0.10659 0.61488-0.13259 0.0457-0.26819 0.48039-0.30135 0.966-0.0332 0.48561-0.16302 0.88316-0.2886 0.88346-0.12557 3e-4 -0.1678 0.23984-0.0938 0.53232s0.026 0.56918-0.1066 0.61488c-0.13258 0.0457-0.26819 0.4804-0.30135 0.96601-0.0332 0.48559-0.16302 0.88314-0.28859 0.88344s-0.16632 0.24572-0.0905 0.5454c0.0758 0.29966 0.0165 0.54484-0.13173 0.54484s-0.20751 0.24518-0.13172 0.54485c0.0758 0.29966 0.0204 0.54485-0.12296 0.54485-0.14341 0-0.2122 0.15058-0.15287 0.33463 0.0593 0.18405-0.0153 0.47098-0.16585 0.63763-0.34332 0.38004-0.94769-0.12185-0.75901-0.6303 0.0698-0.18808-0.0113-0.34196-0.18029-0.34196-0.16895 0-0.24233-0.10851-0.16306-0.24113 0.189-0.31622-0.36118-1.9383-0.65744-1.9383-0.12618 0-0.16117-0.18389-0.0778-0.40864 0.0834-0.22475 0.0241-0.40863-0.13172-0.40863-0.15586 0-0.21514-0.18389-0.13173-0.40865 0.0834-0.22474 0.0241-0.40863-0.13173-0.40863-0.15586 0-0.221-0.16807-0.14477-0.37351 0.0763-0.20543-0.0259-0.54364-0.22702-0.7516-0.2011-0.20794-0.3166-0.53023-0.25665-0.71618 0.0599-0.18595-0.0157-0.3381-0.16815-0.3381-0.15243 0-0.20891-0.18388-0.12551-0.40863s0.0241-0.40864-0.13172-0.40864c-0.15585 0-0.22099-0.16808-0.14476-0.37351 0.0763-0.20543-0.0259-0.54365-0.22703-0.75159-0.20111-0.20796-0.3166-0.53024-0.25665-0.71619 0.0599-0.18596-0.0157-0.33809-0.16816-0.33809-0.15243 0-0.20889-0.1839-0.12549-0.40864 0.0834-0.22475 0.0336-0.40864-0.11073-0.40864-0.1443 0-0.25686-0.15324-0.25013-0.34053 0.0315-0.87514-0.0933-1.3118-0.33122-1.1597-0.14934 0.0954-0.19351-0.0139-0.10353-0.25634 0.0863-0.23253 0.0294-0.42279-0.12648-0.42279-0.15585 0-0.21514-0.18388-0.13173-0.40864 0.0834-0.22475 0.0135-0.40863-0.15554-0.40863-0.16896 0-0.24234-0.10851-0.16307-0.24113 0.189-0.31622-0.36118-1.9383-0.65744-1.9383-0.12617 0-0.16117-0.18389-0.0778-0.40863 0.0834-0.22475 0.0241-0.40864-0.13173-0.40864-0.15585 0-0.21512-0.18389-0.13172-0.40864 0.0834-0.22474 0.0241-0.40864-0.13173-0.40864-0.15585 0-0.221-0.16807-0.14476-0.37351 0.0763-0.20543-0.0259-0.54364-0.22703-0.75159-0.2011-0.20795-0.3166-0.53024-0.25666-0.71619 0.0599-0.18595-0.0157-0.33809-0.16814-0.33809-0.15243 0-0.20891-0.18389-0.1255-0.40864 0.0834-0.22475 0.0241-0.40863-0.13172-0.40863-0.15586 0-0.22101-0.16809-0.14477-0.37351 0.0763-0.20543-0.0259-0.54366-0.22703-0.7516-0.2011-0.20795-0.31659-0.53023-0.25665-0.71618 0.0599-0.18597-0.0157-0.3381-0.16815-0.3381-0.15243 0-0.2089-0.18389-0.1255-0.40865 0.0834-0.22474 0.0336-0.40863-0.11072-0.40863-0.14431 0-0.25687-0.15324-0.25014-0.34053 0.0315-0.87514-0.0933-1.3118-0.33122-1.1597-0.14934 0.0954-0.1935-0.0139-0.10353-0.25635 0.0863-0.23253 0.0294-0.42279-0.12648-0.42279-0.15585 0-0.21513-0.18388-0.13173-0.40863 0.0835-0.22475 0.0135-0.40864-0.15554-0.40864-0.16896 0-0.24233-0.1085-0.16307-0.24113 0.189-0.31622-0.36117-1.9382-0.65744-1.9382-0.12617 0-0.16117-0.1839-0.0778-0.40864 0.0834-0.22475 0.0134-0.40864-0.15555-0.40864s-0.24234-0.10851-0.16307-0.24114c0.19751-0.33044-0.3676-1.9382-0.68125-1.9382-0.13928 0-0.17996-0.12259-0.0904-0.27242 0.10726-0.17946-2.729-0.27243-8.3115-0.27243-7.4244 0-8.4555 0.0507-8.3226 0.40864 0.0834 0.22475 0.027 0.40863-0.12549 0.40863-0.15242 0-0.2281 0.15215-0.16816 0.3381 0.0599 0.18595-0.0556 0.50824-0.25665 0.71618-0.2011 0.20796-0.30326 0.54617-0.22702 0.75161 0.0763 0.20543 0.0111 0.37351-0.14476 0.37351s-0.21514 0.18388-0.13173 0.40863c0.0834 0.22475 0.0241 0.40864-0.13173 0.40864-0.15586 0-0.21513 0.18388-0.13173 0.40863 0.0834 0.22476 0.0484 0.40864-0.0778 0.40864-0.29626 0-0.84643 1.622-0.65743 1.9382 0.0793 0.13263 6e-3 0.24114-0.16307 0.24114-0.16896 0-0.23895 0.18388-0.15555 0.40863s0.0241 0.40864-0.13172 0.40864c-0.15585 0-0.21277 0.19025-0.12648 0.42278 0.09 0.24244 0.0458 0.35178-0.10354 0.25635-0.23794-0.15206-0.36264 0.28458-0.33122 1.1597 7e-3 0.18729-0.10582 0.34053-0.25014 0.34053-0.1443 0-0.19412 0.18389-0.11071 0.40864 0.0834 0.22475 0.0269 0.40863-0.1255 0.40863-0.15243 0-0.2281 0.15215-0.16815 0.3381 0.0599 0.18595-0.0556 0.50824-0.25665 0.71618-0.2011 0.20795-0.30326 0.54617-0.22703 0.7516 0.0763 0.20543 0.011 0.37351-0.14476 0.37351-0.15586 0-0.21514 0.18388-0.13174 0.40863 0.0834 0.22476 0.027 0.40864-0.12549 0.40864-0.15243 0-0.22809 0.15214-0.16815 0.3381 0.0599 0.18595-0.0556 0.50824-0.25665 0.71618-0.20111 0.20795-0.30327 0.54617-0.22704 0.75161 0.0763 0.20542 0.0111 0.37351-0.14476 0.37351-0.15585 0-0.21512 0.18388-0.13172 0.40863 0.0834 0.22474 0.0241 0.40864-0.13173 0.40864-0.15585 0-0.21514 0.18388-0.13172 0.40863 0.0834 0.22475 0.0484 0.40864-0.0778 0.40864-0.29626 0-0.84644 1.622-0.65744 1.9382 0.0793 0.13263 6e-3 0.24113-0.16307 0.24113-0.16895 0-0.23895 0.18389-0.15555 0.40864s0.0484 0.40863-0.0778 0.40863c-0.29626 0-0.84643 1.622-0.65743 1.9383 0.0793 0.13261 6e-3 0.24113-0.16307 0.24113-0.16896 0-0.23895 0.18388-0.15554 0.40863 0.0834 0.22476 0.0241 0.40864-0.13173 0.40864-0.15585 0-0.21277 0.19025-0.12648 0.42279 0.09 0.24243 0.0458 0.35178-0.10353 0.25633-0.23794-0.15205-0.36265 0.28459-0.33122 1.1597 7e-3 0.18729-0.10583 0.34053-0.25014 0.34053-0.1443 0-0.19413 0.18388-0.11072 0.40863 0.0834 0.22475 0.0269 0.40864-0.1255 0.40864-0.15243 0-0.22809 0.15214-0.16815 0.33809 0.0599 0.18595-0.0556 0.50824-0.25665 0.7162-0.2011 0.20794-0.30326 0.54615-0.22703 0.75159 0.0763 0.20543 0.0111 0.37351-0.14476 0.37351s-0.21514 0.18389-0.13173 0.40864c0.0834 0.22474 0.027 0.40863-0.1255 0.40863-0.15242 0-0.22809 0.15215-0.16815 0.3381 0.0599 0.18595-0.0556 0.50823-0.25665 0.71618-0.2011 0.20795-0.30327 0.54617-0.22703 0.7516 0.0763 0.20543 0.0111 0.37351-0.14476 0.37351s-0.2189 0.17374-0.14009 0.38609c0.0788 0.21235-0.0271 0.45368-0.23528 0.5363-0.22319 0.0885-0.37854-0.014-0.37854-0.24988 0-0.22005-0.10745-0.40009-0.23879-0.40009s-0.17678-0.24518-0.101-0.54484c0.0758-0.29967 0.0165-0.54485-0.13172-0.54485-0.14824 0-0.20752-0.24519-0.13174-0.54485 0.0758-0.29967 9e-3 -0.54484-0.14811-0.54484-0.15726 0-0.21768-0.18389-0.13428-0.40864s0.0315-0.40863-0.11532-0.40863c-0.14685 0-0.20498-0.24519-0.12919-0.54485 0.0758-0.29967 0.0165-0.54486-0.13173-0.54486s-0.20752-0.24517-0.13173-0.54484c0.0758-0.29967 0.035-0.54509-0.0905-0.54539-0.12559-3e-4 -0.25545-0.39785-0.28861-0.88345-0.0332-0.4856-0.16876-0.92031-0.30135-0.966-0.13259-0.0457-0.18054-0.3224-0.10658-0.61489 0.074-0.29247 0.0318-0.53202-0.0938-0.53232-0.12558-3e-4 -0.25544-0.39785-0.2886-0.88345-0.0332-0.48561-0.16876-0.92031-0.30135-0.96601s-0.18055-0.32239-0.10658-0.61487c0.074-0.29249 0.0318-0.53207-0.0938-0.53241-0.12558-3.4e-4 -0.24219-0.39332-0.25911-0.87329-0.0169-0.47997-0.15255-0.91463-0.30136-0.96593-0.1488-0.0513-0.21003-0.33256-0.13607-0.62504 0.074-0.29247 0.0132-0.53178-0.13503-0.53178s-0.20751-0.24519-0.13173-0.54485c0.0758-0.29967 9e-3 -0.54484-0.14812-0.54484-0.15725 0-0.21767-0.1839-0.13427-0.40864 0.0834-0.22475 0.0315-0.40863-0.11533-0.40863s-0.20497-0.24519-0.12919-0.54486c0.0758-0.29966 0.0165-0.54485-0.13172-0.54485-0.14824 0-0.20751-0.24517-0.13173-0.54484 0.0758-0.29967 0.0351-0.54509-0.0905-0.54539-0.12557-3e-4 -0.25544-0.39785-0.2886-0.88345-0.0332-0.48561-0.16875-0.92031-0.30134-0.96601-0.1326-0.0457-0.18056-0.32239-0.10659-0.61488 0.074-0.29248 0.0318-0.53202-0.0938-0.53232-0.12557-3e-4 -0.25543-0.39785-0.28859-0.88345-0.0332-0.48561-0.16876-0.92031-0.30135-0.96601s-0.18055-0.32239-0.10658-0.61487c0.074-0.29249 0.0318-0.53208-0.0938-0.53242-0.12557-3.4e-4 -0.24217-0.39332-0.25911-0.87328-0.0169-0.47997-0.15255-0.91463-0.30135-0.96593s-0.21004-0.33256-0.13607-0.62504c0.074-0.29247 0.0132-0.53178-0.13503-0.53178s-0.20751-0.24519-0.13172-0.54485c0.0758-0.29967 0.035-0.54509-0.0905-0.54539-0.12558-3e-4 -0.25545-0.39785-0.2886-0.88346-0.0332-0.48559-0.16877-0.92029-0.30135-0.966-0.13259-0.0457-0.18055-0.3224-0.10659-0.61487 0.0771-0.30473 2e-3 -0.53179-0.17524-0.53179-0.17035 0-0.23646-0.12259-0.14691-0.27242 0.10745-0.17977-3.2085-0.27243-9.75-0.27243h-9.9128l0.1843 0.61295c0.10137 0.33713 0.28053 0.65153 0.39814 0.69867 0.1176 0.0472 0.14853 0.26167 0.0687 0.47674-0.0798 0.21507-0.025 0.39103 0.12187 0.39103 0.14683 0 0.20497 0.24518 0.12919 0.54485-0.0758 0.29967-9e-3 0.54485 0.14812 0.54485 0.15725 0 0.21767 0.18389 0.13427 0.40864-0.0834 0.22474-0.0315 0.40863 0.11532 0.40863 0.14684 0 0.20497 0.24518 0.1292 0.54485-0.0758 0.29966-9e-3 0.54485 0.14811 0.54485 0.15726 0 0.21768 0.18388 0.13428 0.40863s-0.0501 0.40892 0.0741 0.40926c0.12418 3.4e-4 0.23903 0.38105 0.25524 0.84604 0.0162 0.46497 0.13475 0.9244 0.26345 1.021 0.1287 0.0966 0.27191 0.54333 0.31827 0.99282 0.0463 0.4495 0.18788 0.85585 0.31452 0.90298 0.12664 0.0472 0.16494 0.26167 0.0851 0.47674-0.0798 0.21507-0.025 0.39104 0.12187 0.39104 0.14683 0 0.20497 0.24518 0.12919 0.54485-0.0758 0.29966-9e-3 0.54485 0.14812 0.54485 0.15725 0 0.21767 0.18388 0.13427 0.40863s-0.0501 0.40892 0.0741 0.40926c0.12418 3.4e-4 0.23904 0.38106 0.25524 0.84604 0.0162 0.46497 0.13476 0.9244 0.26345 1.021 0.1287 0.0966 0.27192 0.54333 0.31827 0.99282 0.0463 0.4495 0.18788 0.85585 0.31452 0.90298 0.12663 0.0472 0.16494 0.26167 0.0851 0.47674-0.0799 0.21507-0.025 0.39104 0.12186 0.39104 0.14684 0 0.20497 0.24518 0.12919 0.54485-0.0758 0.29966-9e-3 0.54485 0.14812 0.54485 0.15726 0 0.21768 0.18388 0.13427 0.40863-0.0834 0.22475-0.0501 0.40892 0.0741 0.40926 0.12418 3.4e-4 0.23904 0.38106 0.25524 0.84604 0.0162 0.46497 0.13476 0.9244 0.26346 1.021 0.1287 0.0966 0.26021 0.54214 0.29226 0.99021 0.0321 0.44806 0.17358 0.8544 0.31452 0.90298 0.14093 0.0486 0.19094 0.26428 0.11113 0.47935-0.0799 0.21507-0.025 0.39104 0.12186 0.39104 0.14684 0 0.20497 0.24518 0.1292 0.54485-0.0758 0.29966-9e-3 0.54485 0.14811 0.54485 0.15726 0 0.21768 0.18388 0.13428 0.40863s-0.0315 0.40864 0.11532 0.40864c0.14684 0 0.20497 0.24518 0.12919 0.54484-0.0758 0.29967-9e-3 0.54485 0.14812 0.54485 0.15726 0 0.21768 0.18388 0.13427 0.40863-0.0834 0.22476-0.0501 0.40892 0.0741 0.40926 0.12418 3.4e-4 0.23904 0.38106 0.25524 0.84604 0.0162 0.46497 0.13476 0.92442 0.26346 1.021 0.1287 0.0966 0.27191 0.54333 0.31827 0.99283 0.0463 0.44951 0.18788 0.85584 0.31451 0.90298 0.12664 0.0471 0.16494 0.26168 0.0851 0.47675-0.0798 0.21506-0.025 0.39103 0.12186 0.39103 0.14684 0 0.20497 0.24518 0.1292 0.54484-0.0758 0.29967-9e-3 0.54485 0.14811 0.54485 0.15726 0 0.21768 0.18389 0.13428 0.40863-0.0834 0.22476-0.0501 0.40892 0.0741 0.40926 0.12418 3.4e-4 0.23903 0.38106 0.25524 0.84604 0.0162 0.46497 0.13475 0.92442 0.26345 1.021 0.1287 0.0966 0.27191 0.54332 0.31826 0.99282 0.0463 0.44951 0.18789 0.85584 0.31453 0.90298 0.12663 0.0472 0.16494 0.26168 0.0851 0.47675-0.0799 0.21506-0.025 0.39103 0.12187 0.39103 0.14683 0 0.20497 0.24518 0.12919 0.54484-0.0758 0.29967-9e-3 0.54485 0.14812 0.54485 0.15725 0 0.21767 0.18389 0.13427 0.40863-0.0834 0.22476-0.0501 0.40892 0.0741 0.40926 0.12418 3.4e-4 0.23904 0.38106 0.25524 0.84604 0.0162 0.46497 0.13476 0.92442 0.26345 1.021 0.1287 0.0966 0.26022 0.54215 0.29227 0.9902 0.0321 0.44807 0.17358 0.8544 0.31452 0.90298 0.14093 0.0486 0.19094 0.2643 0.11113 0.47937-0.0799 0.21506-0.025 0.39103 0.12186 0.39103 0.14684 0 0.20497 0.24518 0.12919 0.54484-0.0758 0.29967-9e-3 0.54485 0.14812 0.54485 0.15726 0 0.21768 0.18389 0.13427 0.40863-0.0834 0.22476-0.0315 0.40865 0.11533 0.40865s0.20497 0.24517 0.12919 0.54485c-0.0758 0.29966-9e-3 0.54484 0.14812 0.54484 0.15725 0 0.21767 0.18389 0.13427 0.40864s-0.0501 0.40891 0.0741 0.40926c0.12418 3.4e-4 0.23904 0.38105 0.25524 0.84603s0.13476 0.92441 0.26345 1.021c0.1287 0.0966 0.27192 0.54333 0.31828 0.99282 0.0463 0.4495 0.18787 0.85584 0.31451 0.90298 0.12664 0.0472 0.16494 0.26167 0.0851 0.47674-0.0798 0.21507-0.025 0.39104 0.12186 0.39104 0.14684 0 0.20497 0.24517 0.12919 0.54485-0.0758 0.29966-9e-3 0.54484 0.14812 0.54484 0.15726 0 0.21768 0.18389 0.13427 0.40864-0.0834 0.22475-0.0501 0.40891 0.0741 0.40926 0.12418 3.4e-4 0.23904 0.38105 0.25524 0.84603s0.13476 0.92441 0.26346 1.021c0.1287 0.0966 0.24585 0.32879 0.26033 0.51608 0.0144 0.18729 0.0441 0.46312 0.0658 0.61295 0.0256 0.17648 3.8128 0.27242 10.753 0.27242 5.8926 0 10.64-0.0759 10.551-0.16864z" fill="#4d4d4d" stroke="#f00" stroke-width="1.0125"/></g></svg>
